Coordinates
version=1
nRows=5
nColumns=46
inDegrees=yes

Units are S.I. units (second, meters, Newtons, ...)
Angles are in degrees.

endheader
time	pelvis_tilt	pelvis_list	pelvis_rotation	pelvis_tx	pelvis_ty	pelvis_tz	bb_angle	bb_tx	bb_ty	bb_tz	hip_flexion_r	hip_adduction_r	hip_rotation_r	knee_angle_r	knee_angle_r_beta	ankle_angle_r	subtalar_angle_r	mtp_angle_r	crank_angle_r	hip_flexion_l	hip_adduction_l	hip_rotation_l	knee_angle_l	knee_angle_l_beta	ankle_angle_l	subtalar_angle_l	mtp_angle_l	crank_angle_l	lumbar_extension	lumbar_bending	lumbar_rotation	arm_flex_r	arm_add_r	arm_rot_r	elbow_flex_r	pro_sup_r	wrist_flex_r	wrist_dev_r	arm_flex_l	arm_add_l	arm_rot_l	elbow_flex_l	pro_sup_l	wrist_flex_l	wrist_dev_l
      2.50000000	    -26.17746210	      1.38809692	     -6.48724702	      0.39186555	      1.23283089	     -0.22317840	      0.00000000	      0.50000000	      0.00000000	      0.25000000	     59.15370360	      0.07791735	      2.72880004	     58.40119777	      1.01929319	     20.75745582	     -3.52835385	      0.00000000	      0.00000000	     44.03198478	    -15.77483687	    -12.34293219	     64.55792339	      1.12674832	    -13.15650221	      9.90135899	      0.00000000	      0.00000000	    -49.34909497	      7.92125778	      6.02126368	     65.89740290	    -23.81772269	     51.50942363	     61.30048290	     46.91186225	      0.00000000	      0.00000000	     58.28082582	    -10.63580442	     30.51023151	     28.45228450	     43.65382963	      0.00000000	      0.00000000
      2.50500000	    -25.90244908	      1.32230631	     -6.47280853	      0.39250785	      1.23219397	     -0.22303989	      0.00000000	      0.50000000	      0.00000000	      0.25000000	     58.62879648	      0.04741297	      2.68093805	     58.01495852	      1.01255204	     20.53528803	     -3.27387249	      0.00000000	      0.00000000	     44.14072708	    -15.95029168	    -12.19845532	     65.42365982	      1.14185827	    -12.83053466	      9.98007556	      0.00000000	      0.00000000	    -49.52613077	      7.97549699	      6.10282529	     65.91107717	    -24.00002942	     51.90295531	     61.40213250	     46.96942259	      0.00000000	      0.00000000	     58.29718525	    -10.44950652	     30.56799640	     27.98060232	     43.59420169	      0.00000000	      0.00000000
      2.51000000	    -25.78036675	      1.42372535	     -6.36417954	      0.39290295	      1.23123624	     -0.22318652	      0.00000000	      0.50000000	      0.00000000	      0.25000000	     58.37245868	     -0.17516201	      2.70900909	     57.75641481	      1.00803960	     20.24658844	     -3.03108013	      0.00000000	      0.00000000	     44.45284956	    -15.86004918	    -12.01582934	     66.26679544	      1.15657377	    -12.63356713	      9.73367666	      0.00000000	      0.00000000	    -49.45750766	      7.92582970	      6.17506037	     66.07510000	    -24.62651363	     52.90890711	     61.50357208	     47.12880677	      0.00000000	      0.00000000	     58.73136067	    -10.01754307	     31.35983869	     26.78037986	     43.57012500	      0.00000000	      0.00000000
      2.51500000	    -25.66769304	      1.49729404	     -6.35922924	      0.39335986	      1.23017853	     -0.22314479	      0.00000000	      0.50000000	      0.00000000	      0.25000000	     58.11093676	     -0.31074012	      2.71472256	     57.46959701	      1.00303369	     19.98479423	     -2.74717692	      0.00000000	      0.00000000	     44.76811250	    -15.93120407	    -11.94423228	     67.16274756	      1.17221108	    -12.47633060	      9.63146590	      0.00000000	      0.00000000	    -49.46390141	      7.83434967	      6.06639817	     65.44582044	    -24.50107075	     51.83828316	     61.91251027	     47.04646979	      0.00000000	      0.00000000	     58.26936233	    -10.21730740	     30.84494389	     27.69803069	     43.62148756	      0.00000000	      0.00000000
      2.52000000	    -25.51436753	      1.54672712	     -6.30124411	      0.39382737	      1.22920589	     -0.22314294	      0.00000000	      0.50000000	      0.00000000	      0.25000000	     57.80130263	     -0.46640450	      2.68737478	     57.19067075	      0.99816551	     19.71386190	     -2.53627936	      0.00000000	      0.00000000	     45.03768872	    -15.95673378	    -11.78576722	     68.02198425	      1.18720759	    -12.29438213	      9.62070046	      0.00000000	      0.00000000	    -49.49694588	      7.78643765	      5.99669833	     64.97278933	    -24.44105213	     51.06171192	     62.22201406	     46.98776360	      0.00000000	      0.00000000	     57.96847501	    -10.32144035	     30.44669873	     28.35833047	     43.65205543	      0.00000000	      0.00000000
